Coordinates
version=1
nRows=10
nColumns=34
inDegrees=yes

Units are S.I. units (second, meters, Newtons, ...)
If the header above contains a line with 'inDegrees', this indicates whether rotational values are in degrees (yes) or radians (no).

endheader
time	pelvis_tilt	pelvis_list	pelvis_rotation	pelvis_tx	pelvis_ty	pelvis_tz	hip_flexion_r	hip_adduction_r	hip_rotation_r	knee_angle_r	ankle_angle_r	subtalar_angle_r	mtp_angle_r	hip_flexion_l	hip_adduction_l	hip_rotation_l	knee_angle_l	ankle_angle_l	subtalar_angle_l	mtp_angle_l	lumbar_extension	lumbar_bending	lumbar_rotation	arm_flex_r	arm_add_r	arm_rot_r	elbow_flex_r	pro_sup_r	arm_flex_l	arm_add_l	arm_rot_l	elbow_flex_l	pro_sup_l
      3.75000000	     -5.73062308	     -5.41088657	     -7.30456039	      0.51615499	      0.80125153	      0.04032798	     35.70460241	      9.62908100	      9.35884817	     65.33697444	     31.47713317	    -10.03519476	      0.00000000	     36.24988012	    -14.99784191	      9.72358799	     66.25034273	     22.56950377	    -13.05722821	      0.00000000	    -33.01371965	      3.39455098	     -8.95838232	     26.88274748	     -0.23019397	     30.16886433	     86.98143652	     91.57235772	     35.18647420	     -9.16945293	      6.25326801	     44.95032793	     62.84424720
      3.76666670	     -5.39861682	     -5.55038955	     -8.21904662	      0.51068714	      0.81347365	      0.04266494	     35.03398121	      9.99555657	      9.80904499	     63.91092544	     30.16897284	     -9.67064009	      0.00000000	     36.30670357	    -14.55564368	     10.32228193	     66.49583793	     19.84208587	    -16.49201944	      0.00000000	    -35.78239034	      2.64808147	     -9.03131486	     26.81046094	      0.60065747	     30.23063136	     81.63692092	     89.08618442	     36.86986782	     -8.57337788	      9.53121275	     38.98308528	     62.88153452
      3.78333330	     -4.78806041	     -5.49038012	     -8.22503234	      0.50499478	      0.81249408	      0.04423451	     34.03607224	      9.85038307	      9.99208176	     62.55083717	     29.24453309	     -9.41403134	      0.00000000	     36.07384123	    -14.16433393	     10.75122080	     66.33464384	     17.80943529	    -18.43178389	      0.00000000	    -38.80460191	      2.05157729	     -9.68914509	     27.07062964	      2.43655733	     28.71524194	     76.33031234	     87.80101121	     38.09965221	     -7.91891624	     11.79597957	     35.15718697	     62.81498232
      3.80000000	     -5.08877275	     -5.19308550	     -7.53235933	      0.50338311	      0.80833656	      0.04024583	     34.24188064	      8.95712429	      9.41610989	     62.04782511	     28.60994720	     -8.77970797	      0.00000000	     36.45283679	    -13.43517969	     11.32053703	     65.40145247	     17.90470412	    -18.21613478	      0.00000000	    -40.02645576	      1.71688205	    -10.07406173	     26.92735234	      3.16718982	     27.32936891	     71.62070623	     85.88191645	     39.51251520	     -7.04628867	     15.58476414	     31.80251919	     62.43594250
      3.81666670	     -4.94706645	     -5.39081392	     -7.03006835	      0.50726617	      0.81515915	      0.03583552	     33.11024305	      8.28365675	      8.88561439	     60.31853514	     27.83852379	     -7.56971877	      0.00000000	     35.57907711	    -13.27375565	     11.69722599	     63.93086734	     18.32655583	    -17.86580547	      0.00000000	    -41.30716150	      2.03073200	    -10.18466212	     26.39574316	      3.51188989	     25.36950328	     67.07027633	     84.56597091	     38.86347978	     -5.80741262	     18.40912455	     30.58628855	     61.91589906
      3.83333330	     -5.50275452	     -5.44434369	     -6.77734713	      0.50535632	      0.81138842	      0.03549083	     33.25679046	      7.86828916	      8.43903000	     59.61152057	     27.90091786	     -6.58084438	      0.00000000	     36.06996644	    -13.60301144	     11.48371018	     63.27942064	     19.05817464	    -16.60445630	      0.00000000	    -40.82808273	      2.14408592	     -9.74224862	     25.47777848	      3.25650894	     23.57531233	     62.93912292	     83.60491324	     37.16932846	     -4.36114219	     21.01992997	     30.26741776	     61.41345935
      3.85000000	     -6.13776381	     -5.47017953	     -6.91223169	      0.50492740	      0.81417289	      0.03263419	     33.57236879	      7.52645046	      8.24334376	     58.93568500	     27.43202481	     -5.84868840	      0.00000000	     36.24460340	    -13.95584514	     10.73580384	     62.41812470	     19.08873713	    -15.86682130	      0.00000000	    -39.77297656	      2.32018636	     -9.34457896	     24.76714104	      2.87575781	     22.14572914	     59.06197450	     83.13933592	     34.86664075	     -2.98634945	     22.73478469	     30.18141365	     61.12799198
      3.86666670	     -6.63636628	     -5.40701207	     -6.62611381	      0.51212811	      0.82132441	      0.02746803	     32.81614866	      6.77195139	      8.02199467	     56.88996394	     26.96456100	     -5.32184092	      0.00000000	     35.98795225	    -13.92100032	     10.05283576	     61.06445971	     18.70753131	    -15.15603004	      0.00000000	    -38.40213142	      2.84423206	     -9.29089420	     23.07204930	      1.96437050	     20.00356689	     53.64149325	     82.84442270	     32.02493301	     -1.59553253	     24.41633422	     30.17620305	     61.03765216
      3.88333330	     -7.17326146	     -5.06113789	     -6.19891701	      0.52297532	      0.82503540	      0.01949071	     31.40091756	      5.51673202	      7.96425126	     54.25350645	     26.14280378	     -4.57278240	      0.00000000	     34.74489999	    -13.27634862	      9.38301218	     59.00682313	     19.00226557	    -13.95843523	      0.00000000	    -36.01407672	      3.32471543	     -9.34845829	     21.01491843	      0.62811819	     17.96692050	     48.13450476	     82.74241177	     28.76888681	     -0.10710641	     26.06964359	     30.58832960	     61.12033949
      3.90000000	     -6.99117184	     -4.65301789	     -5.65009628	      0.52859327	      0.84565434	      0.01521239	     27.97835662	      4.13027268	      7.96595188	     49.28302412	     24.04352688	     -4.38603849	      0.00000000	     31.57694899	    -12.27235720	      8.71577908	     54.56562128	     18.19661784	    -13.00771720	      0.00000000	    -34.60435449	      3.72011607	     -9.68230460	     19.81557198	     -0.17112508	     16.15880752	     42.81359455	     82.76384826	     25.90595270	      0.93335002	     27.90035037	     30.19659161	     61.28915873
